<svg
    width="166"
    height="144"
    fill="none"
    viewBox="0 0 166 144"
    xmlns="http://www.w3.org/2000/svg"
  >
    <path
      d="M82.488 114.795c-2.104 1.808-4.575 3.05-7.178 4.074-3.728 1.467-7.451 2.942-11.226 4.314-2.412.877-4.843 1.759-7.388 2.308a30.632 30.632 0 01-10.857.37 35.43 35.43 0 01-10.207-3.075c-2.982-1.409-5.754-3.248-8.383-5.456-3.079-2.586-5.712-5.556-7.947-8.859a37.73 37.73 0 01-4.338-8.667c-1.922-5.477-2.558-10.89-1.805-16.14.482-3.362 1.491-6.487 3.094-9.319 1.395-2.463 3.148-4.583 5.156-6.445 1.597-1.481 3.512-2.584 5.506-3.56 2.38-1.165 4.945-1.889 7.648-2.248 4.23-.561 8.576-.124 13.014 1.254 3.56 1.105 6.95 2.805 10.259 4.756 1.508.89 2.902 2.056 4.347 3.098 2.014 1.452 4.038 2.89 6.04 4.364a248.35 248.35 0 015.552 4.192c2.32 1.811 4.634 3.626 6.725 5.762 1.976 2.017 3.69 4.218 5.044 6.655 1.383 2.488 2.235 5.1 2.58 7.786.54 4.209-.276 7.877-2.257 11.082-.906 1.467-2.085 2.668-3.379 3.754z"
      fill="#7A1D47"
    />
    <path
      d="M58.636 36.247a47.342 47.342 0 00-4.166 11.627c-.899 4.132-1.342 8.35-1.406 12.594a93.93 93.93 0 001.502 18.34c1.231 6.75 3.433 13.145 6.95 19.026 1.29 2.159 2.704 4.3 4.591 6.056 1.428 1.328 2.661 2.896 4.207 4.057 2.248 1.69 4.616 3.267 7.085 4.612 4.966 2.705 10.363 3.884 16.007 3.772 3.088-.061 6.205-.113 9.249-.571 3.157-.476 6.249-1.404 9.354-2.198a193.865 193.865 0 007.848-2.171c3.799-1.143 7.666-2.138 11.341-3.604 4.681-1.867 9.397-3.775 13.395-6.981 3.877-3.108 7.033-6.846 8.871-11.478 1.608-4.055 1.949-8.311 1.287-12.679-.73-4.826-2.889-8.984-5.799-12.732-2.126-2.738-4.65-5.165-7.369-7.364-2.239-1.811-4.525-3.59-6.579-5.597-2.163-2.113-4.368-4.219-6.086-6.75-2.438-3.59-4.865-7.188-7.363-10.735-2.196-3.117-4.794-5.882-7.589-8.479a30.949 30.949 0 00-7.646-5.21c-5.244-2.532-10.703-4.175-16.656-3.793-3.54.226-7.036.563-10.368 1.834-1.623.62-3.231 1.315-4.758 2.138-1.86 1.002-3.626 2.175-4.66 2.804-5.166 4.115-8.635 8.412-11.242 13.482z"
      fill="#E6A386"
    />
    <circle cx="47.5" cy="61.5" r="10.5" fill="#fff" />
    <circle cx="105.5" cy="61.5" r="10.5" fill="#fff" />
    <circle cx="76.5" cy="56.5" r="12.5" fill="#fff" />
    <path
      d="M47.5 74c-9.994 0-18.318 7.326-20.133 17.021C26.961 93.193 28.791 95 31 95h33c2.21 0 4.04-1.807 3.633-3.979C65.818 81.326 57.494 74 47.5 74zM105.5 74c-9.994 0-18.318 7.326-20.133 17.021C84.961 93.193 86.791 95 89 95h33c2.209 0 4.039-1.807 3.633-3.979C123.818 81.326 115.494 74 105.5 74z"
      fill="#fff"
    />
    <path
      d="M76 71c-13.055 0-23.862 9.992-25.718 23.012C49.97 96.2 51.79 98 54 98h44c2.209 0 4.03-1.8 3.718-3.988C99.862 80.992 89.055 71 76 71z"
      fill="#fff"
    />
    <circle cx="49.5" cy="59.5" r="10.5" stroke="#00455D" />
    <circle cx="107.5" cy="59.5" r="10.5" stroke="#00455D" />
    <circle cx="78.5" cy="54.5" r="12.5" stroke="#00455D" />
    <path
      d="M49.5 71c-9.994 0-18.318 7.326-20.133 17.021C28.961 90.193 30.791 92 33 92h33c2.21 0 4.04-1.807 3.633-3.979C67.818 78.326 59.494 71 49.5 71zM107.5 71c-9.994 0-18.318 7.326-20.133 17.021C86.961 90.193 88.791 92 91 92h33c2.209 0 4.039-1.807 3.633-3.979C125.818 78.326 117.494 71 107.5 71z"
      fill="#fff"
      stroke="#00455D"
    />
    <path
      d="M78 68c-13.055 0-23.862 9.992-25.718 23.012C51.97 93.2 53.79 95 56 95h44c2.209 0 4.03-1.8 3.718-3.988C101.862 77.992 91.055 68 78 68z"
      fill="#fff"
      stroke="#00455D"
    />
  </svg>