<svg id="logosandtypes_com" xmlns="http://www.w3.org/2000/svg" viewBox="0 0 150 150"><path d="M0 0h150v150H0V0z" fill="none"/><path d="M96.6 106.8c0 9.8 6.3 18.4 15.2 21.4 4.5 1.5 9.1 2.2 13.7 2.4 3.3.1 6.7-.1 9.8-1.6 2.4-1.2 3.6-3.2 3.5-5.9-.1-2.7-1.3-4.7-3.9-5.8-.9-.4-8.4-1.8-11.2-2.3-4.6-.9-6.6-3.4-6.7-8.1-.1-4.2 1.1-8.1 2.4-12 2.3-7.1 14.5-33.8 16.6-40.8 1.1-3.8 1.7-7.6.6-11.6-1.6-6-5.2-10-11.3-11.1-5.7-1.1-11.3-1.2-16.4 2.2-1.7 1.1-3.3.8-4.8-.5-1.1-1-2.2-2-3.3-3.1-5.2-4.8-12.1-5.1-17.7-.7-2.3 1.8-4.2 4-6.6 5.5-2.2 1.4-4.4 1.8-6.8.5-2.3-1.2-4.7-2.3-7.1-3.4-2.4-1.1-4.8-2.4-7.5-2.7-8.6-.7-17.6 4.4-21.4 12.2-1.7 3.4-3.1 7-4.4 10.6-6 16.7-10.9 33.7-16 50.6-2.3 7.6.4 15.1 6.8 19.2 5 3.2 10.5 4 16.2 2.3 4.6-1.4 7.1-5.1 8.9-9.3 5.9-13.8 19.7-49.5 21.4-53.3 1.6-3.8 6.4-5.1 9.2-2.6 1.7 1.6 2.2 3.6 2 5.8-.2 2.4-1.1 4.5-2 6.7-3.9 9.5-12.8 31.6-13.1 33.5-.6 3.4.8 6.5 3.6 7.7 2.9 1.2 5.8 1.4 8.8.4 3.4-1.2 5.5-3.9 7.1-7.1 5.4-10.7 21.4-42 23.9-46.9 1-1.8 2.1-3.5 3.9-4.7 1.6-1 3.3-1.1 5-.2 1.6.9 1.7 2.5 1.6 4.2 0 .9-.3 1.7-.6 2.5-.7 1.7-11.3 24.1-15.8 33.6-1.9 4.1-3.9 8.2-3.6 12.4z" fill="#f64060"/></svg>